<?xml version="1.0" encoding="utf-8"?>
<!-- Generator: Adobe Illustrator 16.0.0, SVG Export Plug-In . SVG Version: 6.00 Build 0)  -->
<!DOCTYPE svg PUBLIC "-//W3C//DTD SVG 1.1//EN" "http://www.w3.org/Graphics/SVG/1.1/DTD/svg11.dtd">
<svg version="1.1" id="Layer_1" xmlns="http://www.w3.org/2000/svg" xmlns:xlink="http://www.w3.org/1999/xlink" x="0px" y="0px"
	 width="250px" height="250px" viewBox="0 0 250 250" style="enable-background:new 0 0 250 250;" xml:space="preserve"
	>
<style type="text/css">
<![CDATA[
	.st0{fill:#8B8B8B;}
	.st1{fill:#FFFFFF;}
	.st2{fill:#030303;}
	.st3{fill:#454545;}
]]>
</style>
<rect x="0" y="0" class="st1" width="250" height="250"/>
<polygon points="250.18,97.75 244.52,99.99 78.22,107.12 24.87,90.66 0.18,86.04 0.18,250.19 250.18,250.19 "/>
<path class="st0" d="M3.57,80.31L3.57,80.31l0.39,1.64c0,0,0.08,0.32,0.59,2.76c0.1,0.46,0.33,1.49,0.66,1.81
	c0.34,0.32,0.72,0.6,3.12,0.91c2.4,0.31,14.46,2.02,14.46,2.02l12.47,1.8l18.91,2.68l2.59,0.6c0,0,5.93-1.1,8.27-1.26
	c2.34-0.16,4.14-0.19,4.14-0.19s1.36-2.87,2.12-3.75c0.76-0.88,1.89-2.17,6.12-3.47c4.23-1.29,16.1-5.13,16.1-5.13l7.64-2.36
	c0,0,7.62-2.31,11.22-2.52l9.45-6.38l3.69-14.8c0,0-0.76-0.51-1.02-1.14h-20.76c0,0-0.42-0.42,0.59-0.51
	c1.02-0.08,20.63-0.89,20.63-0.89l2.67-0.3h5.89l26.56-0.17v0.3c0,0-0.38,0.51-1.99,0.59c-1.61,0.08-25.33,0.59-25.59,0.76
	c-0.25,0.17-0.97,0.8-1.61,0.93l-2.79,20.93l0,0c0,0,0.88-3.27,0,0l0,0l0,0l0,0c0,0-1.44,15.44-12.71,24.95l0.34,1.69l8.53-0.02
	c0,0,9.63-5.42,13.87-4.61c4.23,0.8,5.9,1.8,6.37,3.24l100.96-2.16c0,0,3.13-0.21,3.39-1.73c0.26-1.52,0.31-9.56,0.31-9.56
	l1.04,0.42v10.15c0,0,0.55,4.4-6.56,4.78c-7.12,0.38-93.33,4.06-93.79,4.19c-0.46,0.13-9.86,1.79-9.86,1.79
	s-10.83,14.73-16.21,14.44c-5.38-0.3-10.96,0.85-8.17-4.69c0,0-5.21-1.72,0.01-8.17l0,0l-10.01,0.27l-9.45,2.2
	c0,0-23.89,15.27-41.43,11.08c0,0-4.89-0.13,3.37-14.72c0,0-9.15,5.01-18.75,5.33l-4.83-0.63c0,0-1.48-1.14-0.34-3.34
	c0,0-4.19,0-6.73-2.41c0,0,1.74-4.9,14.4-9.51L0.37,89.25v-9.58H0.18L3.57,80.31z"/>
<path class="st2" d="M78.28,89.38c0,0-6.18-0.66-7.58,0.4l-3.26,6.57c0,0,1.13-1.19,7.78-0.4L78.28,89.38z"/>
<path class="st2" d="M79.41,89.52c0,0,9.11,0.46,9.77,1.26l-1.66,7.3c0,0-2.45-1.59-11.03-2.12L79.41,89.52z"/>
<polygon class="st2" points="90.31,92.1 91.98,96.81 88.85,98.07 "/>
<path class="st2" d="M91.18,90.78l1.93,5.57l2.26-0.66c0,0,2.13-3.85-2.09-5.84L91.18,90.78z"/>
<path class="st2" d="M101.48,90.16c0.38,1.57,0.38,3.2-0.42,3.39c-0.8,0.19-1.55-1.2-1.93-2.77c-0.38-1.57-0.72-2.94,0.09-3.13
	C100.02,87.46,101.1,88.59,101.48,90.16z"/>
<path class="st2" d="M104.51,88.19c0.38,1.57,0.55,3.35-0.25,3.54c-0.8,0.19-1.44-0.99-1.82-2.56s-0.88-2.91-0.08-3.1
	C103.16,85.88,104.13,86.62,104.51,88.19z"/>
<path class="st2" d="M107.56,87.23c0.47,1.54,0.51,3.04-0.25,3.54c-0.69,0.46-1.45-0.99-1.82-2.56c-0.38-1.57-0.64-2.7,0.04-2.98
	C106.24,84.95,107.2,86.04,107.56,87.23z"/>
<path class="st2" d="M110.05,86.08c0.44,1.46,0.48,2.87-0.24,3.35c-0.65,0.43-1.37-0.94-1.72-2.42c-0.36-1.48-0.6-2.55,0.04-2.81
	C108.8,83.93,109.71,84.96,110.05,86.08z"/>
<path class="st2" d="M112.46,85.16c0.42,1.39,0.46,2.73-0.23,3.19c-0.62,0.41-1.3-0.89-1.64-2.3c-0.34-1.41-0.58-2.42,0.04-2.67
	C111.27,83.1,112.13,84.09,112.46,85.16z"/>
<path class="st2" d="M114.77,84.14c0.42,1.37,0.45,2.69-0.22,3.14c-0.61,0.4-1.28-0.88-1.61-2.26c-0.33-1.39-0.57-2.39,0.03-2.63
	C113.61,82.11,114.45,83.09,114.77,84.14z"/>
<path class="st2" d="M117.04,83.18c0.41,1.35,0.44,2.67-0.22,3.11c-0.6,0.4-1.27-0.87-1.6-2.24c-0.33-1.37-0.56-2.36,0.03-2.61
	C115.88,81.18,116.72,82.14,117.04,83.18z"/>
<path class="st3" d="M115.44,109.88c0,0,6.75-3.24,8.08,3.58c1.06,5.46-8.08,4.56-8.08,4.56s-4.4,4.64,4.08,5.05
	c8.49,0.41,9.14-0.9,20.49-14.9c0,0-6.7-6.68,4.16-7.73c0,0,0.88-1.29-3.84-3.26C134.47,94.73,122.14,101,115.44,109.88z"/>
<path class="st3" d="M69.09,92.76c0,0-25,1.65-36.18,9.54c0,0,4.24-0.24,4.98,3.01c0.74,3.26-0.57,4.48-3.67,4.64
	c0,0-1.39,0.33-1.31,1.55c0.08,1.22,0,2.28,2.78,2.52c2.77,0.24,8.73,1.87,22.37-5.62c0,0,8.15-10.94,9.26-12.06
	C68.42,95.22,69.09,92.76,69.09,92.76z"/>
<ellipse class="st1" cx="92.26" cy="222.63" rx="3.62" ry="3.61"/>
<ellipse class="st1" cx="154.2" cy="222.63" rx="3.62" ry="3.61"/>
<ellipse class="st1" cx="201.42" cy="222.63" rx="3.62" ry="3.61"/>
<g>
	<path class="st1" d="M13.94,194.91c0-0.42,0.3-0.84,0.72-0.84h21.65c0.42,0,0.72,0.3,0.72,0.66v10.43c0,0.42-0.36,0.78-0.78,0.78
		h-9.74c-0.36,0-0.66,0.24-0.66,0.66v3.6c0,0.3,0.18,0.54,0.6,0.54h4.57c0.3,0,0.66,0.3,0.66,0.6v10.85c0,0.36-0.3,0.66-0.72,0.66
		h-4.51c-0.3,0-0.6,0.42-0.6,0.78v14.57c0,0.54-0.3,0.84-0.78,0.84H14.6c-0.3,0-0.66-0.36-0.66-0.78V194.91z"/>
	<path class="st1" d="M61.38,226.64c0.42,0,0.66,0.3,0.66,0.6v11.15c0,0.36-0.3,0.66-0.66,0.66H39.86c-0.36,0-0.66-0.36-0.66-0.78
		v-43.35c0-0.36,0.36-0.84,0.78-0.84h10.16c0.36,0,0.6,0.3,0.6,0.66v31.48c0,0.24,0.18,0.42,0.36,0.42L61.38,226.64L61.38,226.64z"
		/>
	<path class="st1" d="M56.76,194.55c-0.06-0.18,0.06-0.48,0.36-0.48h10.94c0.3,0,0.54,0.18,0.66,0.6l2.89,12.41
		c0.06,0.3,0.24,0.48,0.3,0.48c0.12,0,0.3-0.18,0.3-0.48l2.77-12.23c0.12-0.42,0.36-0.78,0.72-0.78h10.46c0.36,0,0.6,0.36,0.48,0.72
		l-7.88,25.25c-0.24,0.84-0.54,2.52-0.54,3.18v15.05c-0.06,0.42-0.36,0.78-0.84,0.78H65.66c-0.36,0-0.66-0.42-0.72-0.72V223.1
		c0-0.9-0.12-1.62-0.54-2.94L56.76,194.55z"/>
	<path class="st1" d="M106.67,239.05c-0.42,0-0.78-0.42-0.78-0.9v-43.47c0-0.3,0.24-0.6,0.54-0.6h10.28c0.42,0,0.72,0.24,0.72,0.6
		v43.59c0,0.36-0.3,0.78-0.72,0.78H106.67z"/>
	<path class="st1" d="M127.95,239.05c-0.42,0-0.84-0.36-0.84-0.84v-31.3c0-0.42-0.36-0.72-0.78-0.72h-6.01
		c-0.36,0-0.78-0.48-0.78-0.84v-10.67c0-0.36,0.18-0.6,0.54-0.6h25.74c0.42,0,0.78,0.24,0.78,0.72v10.55c0,0.48-0.36,0.84-0.84,0.84
		h-6.01c-0.42,0-0.72,0.3-0.72,0.84v31.24c0,0.42-0.36,0.78-0.84,0.78H127.95L127.95,239.05z"/>
	<path class="st1" d="M177.38,230.71c0-0.18-0.12-0.3-0.3-0.3h-10.83c-0.18,0-0.42-0.18-0.42-0.42v-9.59c0-0.24,0.12-0.54,0.18-0.72
		l13.41-24.53c0.12-0.24,0.42-0.48,0.66-0.48h8.9c0.24,0,0.48,0.24,0.48,0.48v23.93c0,0.48,0.24,0.96,1.08,0.96
		c0.96,0,1.74,0.12,1.74,0.66v9.24c0,0.42-0.78,0.48-1.44,0.48c-0.66,0-1.38,0.36-1.38,0.78v7.44c0,0.24-0.18,0.42-0.48,0.42H177.8
		c-0.18,0-0.42-0.18-0.42-0.42V230.71L177.38,230.71z M174.67,219.74c-0.12,0.3,0.12,0.3,2.35,0.3c0.18,0,0.36-0.12,0.36-0.3v-4.14
		c0-0.24-0.12-0.36-0.24-0.36c-0.12,0-0.24,0.12-0.36,0.36L174.67,219.74z"/>
	<path class="st1" d="M222.66,194.07c0.36,0,0.66,0.24,0.66,0.66v30.46c0,0.78,0.3,1.32,1.02,1.32s1.02-0.54,1.02-1.26v-30.58
		c0-0.3,0.3-0.6,0.66-0.6h10.16c0.3,0,0.66,0.18,0.66,0.6v32.14c0,6.36-4.57,12.23-12.51,12.23c-8,0-12.51-5.94-12.51-12.23v-32.08
		c0-0.42,0.24-0.66,0.6-0.66H222.66L222.66,194.07z"/>
</g>
</svg>
