<?xml version="1.0" encoding="utf-8"?>
<!-- Generator: Adobe Illustrator 16.0.0, SVG Export Plug-In . SVG Version: 6.00 Build 0)  -->
<!DOCTYPE svg PUBLIC "-//W3C//DTD SVG 1.1//EN" "http://www.w3.org/Graphics/SVG/1.1/DTD/svg11.dtd">
<svg version="1.1" id="Layer_1" xmlns="http://www.w3.org/2000/svg" xmlns:xlink="http://www.w3.org/1999/xlink" x="0px" y="0px"
	 width="250.369px" height="250.37px" viewBox="0 -25.972 250.369 250.37" enable-background="new 0 -25.972 250.369 250.37"
	 xml:space="preserve">
<polygon class="logo_color_fill" points="250.306,72.928 244.157,75.148 78.106,82.229 24.829,65.883 0.063,60.314 0.063,224.398 250.306,224.398 "/>
<path fill="#8B8B8B" d="M3.387,54.584L3.387,54.584l0.393,1.637c0,0,0.076,0.315,0.592,2.754c0.098,0.463,0.325,1.491,0.664,1.806
	c0.339,0.315,0.718,0.598,3.115,0.913c2.398,0.314,14.447,2.013,14.447,2.013L35.059,65.5l18.895,2.673l2.589,0.598
	c0,0,5.929-1.101,8.263-1.257c2.336-0.157,4.133-0.189,4.133-0.189s1.357-2.863,2.115-3.743c0.756-0.881,1.892-2.171,6.117-3.461
	c4.229-1.289,16.09-5.127,16.09-5.127l7.633-2.36c0,0,7.613-2.302,11.211-2.512l9.441-6.375l3.683-14.776
	c0,0-0.763-0.507-1.016-1.141h-20.745c0,0-0.423-0.422,0.593-0.506c1.017-0.084,20.618-0.887,20.618-0.887l2.667-0.295h5.885
	l26.541-0.171v0.296c0,0-0.381,0.506-1.988,0.591c-1.61,0.084-25.317,0.591-25.571,0.76s-0.973,0.802-1.606,0.929l-2.795,20.898l0,0
	c0,0,0.877-3.261,0,0l0,0l0,0l0,0c0,0-1.439,15.417-12.702,24.909l0.338,1.689l8.523-0.025c0,0,9.625-5.408,13.857-4.606
	c4.231,0.802,5.899,1.802,6.364,3.238l100.886-2.153c0,0,3.133-0.211,3.387-1.731c0.254-1.521,1.312-9.542,1.312-9.542l0.593,0.423
	V71.78c0,0,0,4.391-7.111,4.77c-7.112,0.381-93.265,4.054-93.729,4.18c-0.465,0.127-9.853,1.792-9.853,1.792
	S128.86,97.23,123.483,96.936c-5.375-0.296-10.956,0.85-8.162-4.68c0,0-5.205-1.714,0.012-8.163l0,0l-10.002,0.268l-9.441,2.195
	c0,0-23.877,15.25-41.404,11.065c0,0-4.889-0.131,3.367-14.696c0,0-9.145,5.003-18.732,5.319l-4.828-0.633
	c0,0-1.481-1.141-0.338-3.335c0,0-4.191,0-6.73-2.406c0,0,1.735-4.897,14.39-9.501L0,63.51v-9.568l0,0L3.387,54.584z"/>
<path fill="#030303" d="M78.043,63.647c0,0-6.18-0.663-7.574,0.396l-3.254,6.56c0,0,1.129-1.192,7.772-0.398L78.043,63.647z"/>
<path fill="#030303" d="M79.174,63.78c0,0,9.1,0.464,9.764,1.259l-1.662,7.287c0,0-2.453-1.588-11.027-2.12L79.174,63.78z"/>
<polygon fill="#030303" points="90.066,66.364 91.727,71.068 88.605,72.326 "/>
<path fill="#030303" d="M90.932,65.039l1.925,5.565l2.26-0.663c0,0,2.124-3.843-2.093-5.83L90.932,65.039z"/>
<path fill="#030303" d="M101.221,64.426c0.377,1.566,0.383,3.193-0.42,3.385c-0.804,0.191-1.551-1.201-1.928-2.766
	c-0.376-1.565-0.717-2.935,0.086-3.128C99.762,61.725,100.844,62.86,101.221,64.426z"/>
<path fill="#030303" d="M104.25,62.456c0.377,1.565,0.549,3.346-0.254,3.539c-0.803,0.192-1.443-0.989-1.82-2.554
	c-0.378-1.565-0.878-2.904-0.076-3.096C102.904,60.153,103.873,60.891,104.25,62.456z"/>
<path fill="#030303" d="M107.301,61.5c0.469,1.541,0.506,3.037-0.252,3.539c-0.689,0.455-1.445-0.989-1.822-2.554
	c-0.376-1.565-0.641-2.692,0.04-2.971C105.986,59.219,106.938,60.313,107.301,61.5z"/>
<path fill="#030303" d="M109.887,60.354c0.443,1.455,0.477,2.869-0.239,3.343c-0.65,0.43-1.364-0.935-1.72-2.413
	c-0.357-1.479-0.604-2.543,0.037-2.807C108.644,58.199,109.545,59.234,109.887,60.354z"/>
<path fill="#030303" d="M112.292,59.431c0.423,1.384,0.456,2.73-0.228,3.181c-0.617,0.409-1.297-0.889-1.635-2.295
	c-0.34-1.407-0.576-2.42,0.035-2.671C111.111,57.379,111.967,58.365,112.292,59.431z"/>
<path fill="#030303" d="M114.604,58.411c0.418,1.363,0.449,2.689-0.222,3.133c-0.61,0.404-1.278-0.875-1.612-2.261
	s-0.568-2.384,0.033-2.631C113.44,56.39,114.285,57.361,114.604,58.411z"/>
<path fill="#030303" d="M116.864,57.457c0.411,1.349,0.443,2.661-0.221,3.101c-0.604,0.398-1.266-0.867-1.595-2.238
	c-0.33-1.371-0.562-2.359,0.033-2.604C115.713,55.457,116.547,56.417,116.864,57.457z"/>
<path fill="#454545" d="M115.273,84.113c0,0,6.744-3.237,8.072,3.576c1.058,5.447-8.072,4.552-8.072,4.552s-4.396,4.634,4.078,5.041
	c8.477,0.405,9.128-0.894,20.46-14.876c0,0-6.686-6.666,4.154-7.723c0,0,0.881-1.292-3.83-3.251
	C134.269,68.992,121.959,75.25,115.273,84.113z"/>
<path fill="#454545" d="M68.991,67.022c0,0-24.96,1.644-36.128,9.529c0,0,4.236-0.244,4.971,3.007
	c0.734,3.252-0.568,4.472-3.666,4.634c0,0-1.387,0.325-1.305,1.544c0.082,1.219,0,2.275,2.773,2.52
	c2.77,0.244,8.719,1.87,22.332-5.609c0,0,8.137-10.922,9.246-12.045C68.322,69.479,68.991,67.022,68.991,67.022z"/>
<ellipse fill="#FFFFFF" cx="92.125" cy="196.7" rx="3.617" ry="3.606"/>
<ellipse fill="#FFFFFF" cx="153.976" cy="196.7" rx="3.618" ry="3.606"/>
<ellipse fill="#FFFFFF" cx="201.125" cy="196.7" rx="3.618" ry="3.606"/>
<g>
	<path fill="#FFFFFF" d="M13.92,169.023c0-0.42,0.3-0.84,0.721-0.84h21.615c0.42,0,0.721,0.301,0.721,0.66v10.418
		c0,0.418-0.36,0.777-0.781,0.777h-9.727c-0.36,0-0.66,0.24-0.66,0.659v3.593c0,0.299,0.18,0.539,0.6,0.539h4.563
		c0.301,0,0.661,0.299,0.661,0.598v10.838c0,0.359-0.301,0.658-0.721,0.658h-4.504c-0.3,0-0.6,0.42-0.6,0.779v14.549
		c0,0.539-0.301,0.84-0.781,0.84H14.58c-0.3,0-0.66-0.359-0.66-0.779V169.023z"/>
	<path fill="#FFFFFF" d="M61.294,200.698c0.421,0,0.661,0.299,0.661,0.599v11.137c0,0.358-0.301,0.658-0.661,0.658H39.799
		c-0.36,0-0.66-0.359-0.66-0.777v-43.291c0-0.358,0.36-0.838,0.78-0.838h10.147c0.36,0,0.601,0.3,0.601,0.658v31.436
		c0,0.24,0.18,0.42,0.36,0.42L61.294,200.698L61.294,200.698z"/>
	<path fill="#FFFFFF" d="M56.672,168.664c-0.06-0.18,0.06-0.479,0.36-0.479H67.96c0.3,0,0.54,0.18,0.66,0.6l2.883,12.395
		c0.06,0.299,0.24,0.479,0.3,0.479c0.12,0,0.3-0.181,0.3-0.479l2.763-12.215c0.12-0.42,0.36-0.779,0.721-0.779h10.447
		c0.36,0,0.601,0.359,0.48,0.72l-7.866,25.208c-0.24,0.839-0.54,2.516-0.54,3.173v15.028c-0.061,0.42-0.36,0.779-0.841,0.779H65.559
		c-0.36,0-0.661-0.42-0.721-0.72v-15.208c0-0.898-0.12-1.617-0.54-2.934L56.672,168.664z"/>
	<path fill="#FFFFFF" d="M106.508,213.091c-0.42,0-0.78-0.418-0.78-0.896v-43.41c0-0.3,0.24-0.6,0.54-0.6h10.268
		c0.42,0,0.721,0.24,0.721,0.6v43.529c0,0.359-0.301,0.777-0.721,0.777H106.508z"/>
	<path fill="#FFFFFF" d="M127.765,213.091c-0.42,0-0.842-0.359-0.842-0.838v-31.255c0-0.42-0.359-0.719-0.779-0.719h-6.004
		c-0.36,0-0.781-0.479-0.781-0.839v-10.657c0-0.358,0.181-0.601,0.541-0.601h25.698c0.42,0,0.78,0.24,0.78,0.72v10.538
		c0,0.48-0.36,0.839-0.841,0.839h-6.004c-0.42,0-0.721,0.299-0.721,0.838v31.194c0,0.42-0.36,0.779-0.842,0.779H127.765
		L127.765,213.091z"/>
	<path fill="#FFFFFF" d="M177.119,204.767c0-0.18-0.12-0.299-0.3-0.299h-10.809c-0.181,0-0.421-0.18-0.421-0.418v-9.58
		c0-0.24,0.12-0.539,0.181-0.72l13.391-24.489c0.119-0.238,0.42-0.479,0.66-0.479h8.887c0.24,0,0.48,0.238,0.48,0.479v23.892
		c0,0.479,0.24,0.958,1.08,0.958c0.961,0,1.741,0.119,1.741,0.658v9.222c0,0.418-0.78,0.479-1.44,0.479s-1.381,0.358-1.381,0.777
		v7.426c0,0.238-0.182,0.418-0.48,0.418H177.54c-0.182,0-0.421-0.18-0.421-0.418V204.767L177.119,204.767z M174.418,193.81
		c-0.12,0.301,0.12,0.301,2.342,0.301c0.181,0,0.359-0.12,0.359-0.301v-4.131c0-0.24-0.12-0.358-0.24-0.358
		c-0.119,0-0.239,0.118-0.358,0.358L174.418,193.81z"/>
	<path fill="#FFFFFF" d="M222.333,168.183c0.359,0,0.66,0.24,0.66,0.66v30.416c0,0.778,0.301,1.316,1.021,1.316
		s1.021-0.538,1.021-1.257v-30.536c0-0.301,0.3-0.6,0.659-0.6h10.147c0.3,0,0.66,0.18,0.66,0.6v32.093
		c0,6.347-4.563,12.216-12.489,12.216c-7.984,0-12.488-5.929-12.488-12.216v-32.032c0-0.42,0.24-0.66,0.602-0.66H222.333
		L222.333,168.183z"/>
</g>
</svg>
