<?xml version="1.0" encoding="utf-8"?>
<!-- Generator: Adobe Illustrator 16.0.0, SVG Export Plug-In . SVG Version: 6.00 Build 0)  -->
<!DOCTYPE svg PUBLIC "-//W3C//DTD SVG 1.1//EN" "http://www.w3.org/Graphics/SVG/1.1/DTD/svg11.dtd">
<svg version="1.1" id="Layer_1" xmlns="http://www.w3.org/2000/svg" xmlns:xlink="http://www.w3.org/1999/xlink" x="0px" y="0px"
	 width="612.954px" height="323.705px" viewBox="0 0 612.954 323.705" enable-background="new 0 0 612.954 323.705"
	 xml:space="preserve">
<rect opacity="0.5" fill="#C4E0E6" width="612.954" height="323.705"/>
<g>
	<path fill="none" d="M316.725,316.066c0-2.227-0.638-6.364-4.774-6.999c-4.135-0.639-1.908-3.821-1.908-3.821h7.32l6.363-2.226
		l1.272-3.185l7.319-2.86h6.361l5.095,5.407h13.361l7.318,5.092l1.595,6.365l4.136,1.592l9.227,2.859l6.046,5.729l-0.011,0.138
		h180.54l-0.806-7.734l-11.628-4.873l-10.503,1.124l-5.251,3.749l-17.627-1.126l-0.377-3.375l-5.251-3.749l-0.373-4.879
		l-7.878-7.877l-5.249-5.624v-3.751v-4.876v-25.504l17.251-11.255v-5.25v-3.751v-4.124l6.379-4.128l2.25-4.875v-2.626h3.748
		l-1.22-2.044l-0.748-2.253h-2.251l-5.707-0.068l-1.55-4.819l0.354-15.739l5.401-0.373h7.662l3.589-2.252h3.375l-0.373-5.626
		l-6.591-7.932l9.59-2.195c0,0,10.879-12.378,10.879-13.879c0-1.5,3.752,0,3.752,0l6.374-1.125l0.752-5.355v-7.771l2.998-1.125
		l2.253,4.5l0.374,4.397h10.879l7.499,1.979l5.568-1.979l-1.422-4.773c0,0,2.231-7.875,2.98-9.923c0.751-2.047,0,3.922,0,3.922
		l6.108,1.876v-1.501c0,0,1.02-5.625,0-6.751c-1.019-1.126,2.604-0.75,2.604-0.75h5.169v-1.875h-3.003l-4.77,0.374h-3.265
		l-2.468-5.627v-8.874h4.101c0,0,3.026-6.877,3.026-7.091c0-0.214-3.026,0-3.026,0v-5.563l-3.726,3.152l-2.31,4.126v5.376h-2.941
		l-6.751,8.874l4.124,4.126l0.752,6.206h-4.876l-5.625,7.297l-3.003,4.5l1.127-4.5l-3.965-2.623v-6.379l-5.788,1.704l-7.501-2.078
		l0.376-4.5l-3.003-4.501l0.753-3.375l13.875-6.277l1.288-5.564l9.87-5.563v-4.352l3.47-6.375l6.396-0.751l6.557-6.001h16.101V0
		H1.815v324.158h314.602C316.469,323.138,316.725,318.066,316.725,316.066z M600.169,60.755l-3.267-0.924l0.732-0.923h2.534V60.755z
		 M592.5,47.408h5.681c1.137,0,4.402,0.567,4.545,1.491c0.14,0.923,0,2.483-0.992,2.483c-0.996,0-5.116,0.143-5.684,0
		c-0.568-0.141-3.55-0.993-3.55-0.993V47.408z M572.904,50.389l12.779,0.853l2.984-0.853l0.566,1.989l1.849,1.562v1.417
		l-1.281,1.707l-0.567,1.844l0.283,1.563l-2.27,1.277l0.281,1.706l0.143,1.134h-2.269h-2.701c0,0,0.71-0.427,0-1.561
		c-0.712-1.136-2.273-2.272-2.273-2.272v-3.268h-4.827l-1.705-2.553c0,0-2.553-0.712-2.553-1.279
		C571.343,53.088,572.904,50.389,572.904,50.389z M332.084,276.103h-3.634h-0.632c0,0-2.209-2.212-2.422-2.212
		c-0.211,0-1.211-3.79-1.211-3.79s-5.684-1.579-5.684-2.055v-3.316c0-1.42,2.209,0,2.209,0s2.213,0.318,3.318,0.789
		c1.105,0.476,0,0.95,0,1.423c0,0.476,2.054,2.212,2.37,2.687c0.313,0.473,1.419,2.208,1.419,2.208h2.238
		c0,0,1.55,0.948,2.027,1.737C332.556,274.367,332.084,276.103,332.084,276.103z M346.77,281.946l-1.895,1.263
		c0,0-1.263,1.104-2.055,0.633c-0.788-0.474-3.946,0-3.946,0v-1.896h-2.685l1.341-2.054c0,0,3.237-0.95,3.237-1.583v-2.207h2.845
		v1.42l3.315,0.317l0.948,3.158L346.77,281.946z M509.572,118.978c-0.428,0-4.261-0.997-4.831-0.997
		c-0.565,0-4.614-0.141-4.614-0.141s-0.354-0.143,0,0.568c0.354,0.708,0,1.277,0,1.277l-3.62,0.284l-3.267,0.711
		c0,0-1.844-2.557-2.128-2.984c-0.287-0.428-2.558-1.562-2.841-2.271c-0.283-0.709-1.561-2.414-0.994-3.125
		c0.569-0.711,1.278-2.414,2.128-2.557c0.854-0.142,1.707,0,1.707,0s0.143,2.131,0.567,2.131h3.547c0.714,0,1.28-2.191,1.28-2.191
		h6.107c0,0,4.829,0.501,5.255,0c0.423-0.505,2.27,0.631,2.695,0.631c0.428,0,0.141,1.274,0.996,1.274
		c0.852,0,1.56,0.853,1.56,0.853l-3.548,1.99v3.122C509.572,117.555,509.996,118.978,509.572,118.978z M524.624,150.643
		c0,0,2.129,0.853,2.129,1.706c0,0.849,2.132,0.141,2.132,0.141l0.712-6.818c0,0-0.854-4.26,0-4.26c0.851,0,2.13,0,2.27,0.712
		c0.142,0.709,0.854,5.82,1.704,6.247c0.854,0.425,1.561,1.418,2.271,2.841c0.711,1.417,4.829,7.523,4.829,7.523h2.558l1.417,6.677
		v4.402h-2.411c0,0-5.967,0.995-6.532,0.995h-5.397c0,0-3.121-2.7-2.979-3.127c0.139-0.426,2.412-2.981,2.412-2.981l1.846-3.833
		v-4.759h-4.258v2.486v3.551c0,0.424-0.855,3.833-1.423,4.116c-0.568,0.285-1.278,1.137-1.278,1.137l-4.969-1.137l-1.136-1.278
		v-4.827l3.557-2.557l1.98-4.404L524.624,150.643z M380.796,42.284V40.67l4.572,1.883h7.537l2.69-4.037l1.077-1.7
		c0,0-1.077-2.606-2.692-2.606s-4.033-0.541-5.92-0.541c-1.884,0,2.961-2.15,2.961-2.15l4.843-0.538h2.153l6.189,0.538l1.347-1.077
		l2.153-4.574l10.227-0.539l5.38,1.883l1.347,2.422h4.844c0,0,0.27-1.078,0.27-2.422c0-1.345,3.767-0.807,3.767-0.807l5.38,0.539
		l1.618-3.501h9.416h13.993l6.188,1.079l1.885-4.575h2.962l2.419,4.037l1.615-4.037h11.305l5.111,1.615l1.348,2.152
		c0,0-2.422,6.458-2.422,7.266c0,0.807,5.113-0.539,5.113-0.539s5.647-2.961,6.457-3.768c0.807-0.807,7.803-1.613,7.803-1.613h8.344
		c0,0,0,4.573-1.884,5.649c-1.885,1.077-5.382,2.153-6.189,2.693c-0.807,0.537-5.653,3.413-5.653,3.413l-6.188,3.854v5.92h3.229
		v2.96l-2.154,2.422l2.154,2.154v2.958v5.919l-2.154,3.232c0,0-2.421,1.881-3.765,1.077c-1.348-0.807,0,0,0-0.809
		s-5.384-1.075-6.192-1.075c-0.807,0-0.807,1.075-1.345,2.42c-0.535,1.343-0.27,3.229-0.27,3.229s3.499,3.767,4.307,4.037
		c0.809,0.268,1.613,2.421,1.613,2.421l-2.69,0.271l-3.766-0.54l-1.885,4.576l5.65,1.075v3.498c0,0-3.766,3.499-6.456,3.499
		c-2.693,0-6.192,0.271-6.192,0.271s-3.767,2.42-5.65,2.42c-1.881,0-4.575,2.153-4.575,2.153s-1.885,3.498-4.035,3.498
		c-2.154,0-11.305,1.884-11.305,1.884l-1.341,5.383l-2.694,5.382l-3.229,2.422l-3.497,7.266l-1.078,1.615h-4.575v-2.153
		l-5.381-1.345l-3.768-4.307v-8.88h-3.23l-1.076-1.346l1.076-4.575l-1.076-3.768h-2.96l0.538-2.958l3.498-4.307v-1.883h-2.961
		l-2.151-4.843h2.151v-5.921l-16.683-20.588h-20.184l-0.539-1.208l-2.688-1.343l0.805-1.08l1.345-1.075l2.155-1.347
		c0,0-4.846-3.765-5.923-4.039c-1.076-0.266-3.229-0.536-5.179-0.536C376.086,44.705,380.796,42.284,380.796,42.284z
		 M286.098,50.993l2.044-2.552c0,0,1.529-2.379,1.87-2.891c0.34-0.513,0-1.363,1.19-1.192c1.191,0.17,4.768,1.359,4.768,1.359
		l-0.17,3.236h5.274l-2.979-4.619h3.662h5.784l0.34-1.341h4.597v-3.06h12.425l2.889-3.064h12.768c0,0,5.958,0.512,7.147,0
		c1.193-0.51,7.491,0.512,8.171,0c0.68-0.51,6.298-0.147,6.298-0.147s2.379,0.484,2.551,0.998c0.171,0.511,0,2.553,0,2.553
		l2.383,2.043c0,0-0.172,1.871-1.192,1.871c-1.02,0-3.402,0.509-3.402,0.509l-4.424,3.064l-4.597,3.065l-1.192-0.509l-3.741,0.167
		l-0.173,2.759h-2.725l-0.509,1.497h-7.486h-3.234l0.168,8.594h-9.869l-1.703,5.364c0,0,0.321,4.609,0.955,4.917
		c0.103,0.011,0.131,0.017,0.066,0.017c-0.022,0-0.045-0.007-0.066-0.017c-0.991-0.105-8.956-0.666-8.956-0.666
		s-7.999-0.002-8.508,0c-0.401,0-2.712,0.74-3.498,0.464l1.113,2.092v1.189c0,0,4.598,0.512,5.451,0.512h5.445h7.487l3.234,1.188
		l-1.703,1.813h-10.041h-7.489h-7.147h-3.744v-3.852c0,0-2.894-2.212-3.063-2.725c-0.168-0.51-0.341-1.361,0-2.554
		c0.34-1.19,1.434-2.38,1.434-2.38v2.38h3.675v1.872c0,0,0.847,1.641,2.041,1.501c1.191-0.139,3.061-1.501,3.061-1.501l0.002,0.005
		c0.001-0.002,0-0.003,0.001-0.005c0.339-1.189,0.339-3.062,0.339-3.062s1.36-2.724,1.701-3.062c0.34-0.343,2.895-0.514,3.405-1.194
		c0.509-0.679,2.381-1.191,2.551-2.298c0.172-1.104,0-2.298,0-2.298s-3.328-1.138-3.79-0.823c-0.465,0.312-2.335,0.311-2.846,0.823
		c-0.512,0.513-2.214,1.021-2.214,1.021l-1.36-1.9c0,0-2.042-0.77-2.215,0.056c-0.167,0.823-2.212,3.121-2.212,3.121l-2.039-2.298
		l-3.406-2.211v-2.895l-2.723-1.189l-2.633-0.85L286.098,50.993z M285.336,68.013c-0.083-0.678,1.271-1.19,1.271-1.19h2.214v3.404
		v1.841l-2.214,0.88c0,0-0.338-1.7-1.271-1.872C284.403,70.908,285.417,68.693,285.336,68.013z M284.906,89.458
		c1.361,1.701-0.849,0-2.04,0c-1.193,0-0.852,1.36-0.852,1.36s-0.514,2.895-1.364,2.895h-3.741l-0.257-2.895v-1.36l-0.765-1.191
		h-3.235c0,0-2.042-0.51-2.126-2.384c-0.086-1.87,2.978-0.171,2.978-0.171l0.68-0.678l1.021-2.215h1.704l2.212,1.87l0.341,2.216
		h2.383C281.845,86.907,283.546,87.758,284.906,89.458z M280.312,73.459c0,0-0.341,0.85,0,2.555l0.341,1.7l-2.384,0.683
		l-1.359-0.683V75.67h-1.873c0,0-2.384-0.34-2.384-1.018v-2.584c0,0,0.512-0.99,2.131-0.99h3.658v2.382H280.312z M264.146,54.739
		h2.211v2.039l3.403,0.344c0,0,4.935,0,6.466,0.34c1.534,0.341,0,1.533,0,1.533v4.337c0,1.276-0.17,2.128-1.36,2.298
		c-1.19,0.171,0,0-1.02-1.699c-1.021-1.703-2.212-0.343-2.212-0.343l-1.022-1.02c-1.024-1.021-1.023-1.361-2.044-1.534
		c-1.018-0.17-3.233,0-3.233,0l-1.189-1.529V54.739z M248.316,63.931v-2.896h4.254v2.212l-1.871,0.685h-1.363l0.512,1.699h-1.532
		C246.786,65.63,248.316,63.931,248.316,63.931z M222.277,68.354h2.892l2.725-1.363v-3.062h7.998v3.746l1.189,3.234l5.958,2.211
		l0.171-1.362l3.405,0.173l0.34,2.57l3.063,0.831c0,0,1.362-3.745,1.362-4.252c0-0.51,2.38-2.214,2.38-2.214s2.046-0.167,2.555,0
		c0.509,0.173,0.169,2.722,0.169,2.722l2.043,2.951l0.681,2.328c0,0-4.595,1.189-5.958,1.189c-1.361,0-2.212,0.852-2.212,1.362
		c0,0.513-0.169,1.022-1.189,0.683c-1.02-0.343-3.746,0.168-5.785,0c-2.042-0.17,0-3.299,0-3.299l-1.536-1.977l-2.723,0.848
		c0,0-2.891,0.173-3.401,1.022c-0.512,0.853-2.723-3.746-2.723-3.746l-0.849-2.635v-1.448h-2.217l-2.042,2.894
		c0,0-3.233,0.852-4.422,0.311c-1.194-0.54-1.534,0.374-1.874,0C221.936,71.699,222.277,68.354,222.277,68.354z M307.92,307.371
		h-3.474c0,0-2.529-1.738-3.001-1.896c-0.474-0.159-4.263-2.841-4.263-3.945v-4.581c0-0.634-0.948-3.159-0.948-3.159l-6.001-0.315
		c0,0-3.473-1.737-3.473-2.211s-2.213-2.687-2.213-2.687l-3.947-2.683h-8.054h-5.214l-0.946-1.106c0,0,1.105-2.052,1.105-2.999
		c0-0.95-1.425-2.369-1.425-2.369l-4.894-4.105l-0.157-2.843l1.579-1.107c0,0-0.159-1.735-0.473-2.367
		c-0.317-0.634-5.369-11.055-5.369-11.055l-0.951-1.265l-4.263-4.422l-1.894-1.738c0,0-1.737-3.316-1.737-2.685v6.635
		c0,0,0.472,2.683,0.788,3.157c0.316,0.474,0.316,3.633,0.316,3.633v1.736v0.791l-0.316,1.42h-1.734l-0.597-2.095l-9.002-18.002
		c0,0-12.752-19.504-15.753-21.755c-3-2.25-6-27.006-3.751-33.758l2.25-6.752h-3.037h-7.463v-7.5l-5.253-2.998l-3.75-9.005
		l-6.753-8.251l-3.75-7.499l-2.999,5.248v-8.251h-3.752h-4.501l-10.503-8.252h-12.002h-2.999h-4.5h-4.502l-5.164,8.93l4.415,3.311
		v2.944h-4.415l-1.838-4.046h-1.474l-2.945,0.734v3.68l-3.68,0.369l-4.048,0.735v2.942l-2.573-3.31l4.414-3.311l2.578-4.785
		l-1.843-4.049h-2.942l-2.207-4.145h-2.945l-4.418-1.741v-4.415h-2.207l1.84-2.944l5.152-2.578l2.208-1.842v-2.574h-9.201
		l-2.944-4.783l-2.207-2.944h3.31h4.418h3.31h2.947l-1.107-1.841l-2.941-3.314l1.84-5.886l3.312-4.784l4.781-2.945h3.315
		l2.573-1.841h5.521l6.625,1.841l17.665,0.367l0.735,1.842h5.149v1.843h7.778L180.03,100l1.475,1.473l6.99-0.37l0.366,2.209h5.521
		l4.415-3.312l-0.485-1.094l1.583,0.158l0.473,2.371h3.947l0.158-1.423l3.315-0.789l0.16-3.16l4.264-0.156l1.578,1.577l2.525-0.156
		l1.739,1.895l8.057,0.475l0.629,1.737h4.741l0.158,2.525l4.736-0.946l1.104-5.213l4.262-0.318l0.634-2.523l-1.735-1.897
		l-5.529,0.632l-0.946-2.687l-1.737-1.895l-1.262-1.735v-2.053h-3.161l-0.947,0.946l0.314,3.634l-1.892,1.104h-4.268l-3.632-2.05
		l-2.211-1.581l-0.946-2.053h2.528l1.576-3.319l0.79-1.736c0,0,4.737-1.578,5.211-1.578h8.056l2.526,1.42l0.947,0.79l-1.265,2.053
		c0,0,0,1.737,0.475,1.737h3.791l13.897,0.79l2.213,4.423l2.21-1.424v-2.523l3.158-0.476v-2.999l2.527,0.314l1.107,6.948
		l6.476,6.317v6.001l-1.267,1.738l-1.581,1.107l-1.103-0.79l-2.526-0.949h-4.107h-4.895l-1.898,3l-0.629,0.789l-0.945,0.476
		c0,0-2.213,0.473-2.371,0c-0.159-0.476-1.739-1.424-1.739-1.424l-0.632-0.946l-0.787-0.473h-3.475l-1.107,0.947l-3.791,1.897
		c0,0-0.632,2.209,0.16,2.209h7.423c0,0,0.157-2.209,0.79-2.209c0.627,0,2.682,2.367,2.682,2.367l2.371,2.21l0.946,0.632
		l0.949-3.316l3.317-1.735c0,0,2.366-0.318,3.631-0.318h5.212c0,0-0.476-1.736,0-1.736c0.471,0,3.789,0.947,3.789,0.947
		s-0.474,0.159,0.159,1.579c0.632,1.424,3.476,1.738,3.476,1.738l0.628-2.053l5.528-0.631l1.894,0.156v-1.736l-1.737-0.314
		l-0.788-0.791c0,0,0.312-1.42,0.788-1.739c0.476-0.314,2.527-1.261,2.527-1.261s0.79,0.315,1.422,0.947
		c0.632,0.629,1.263,0.787,1.263,1.738v3l3.632-0.159l1.737-1.581l0.633-2.051l-2.528-1.579l-1.896-3.948v-7.896l-0.629-5.847
		l3.792-1.575c0,0,5.683-1.423,6.157-1.423c0.473,0,2.211,2.21,2.211,2.21v1.737l-3.949,1.422l-2.845,1.423l-1.737,1.893l1.11,1.896
		l2.366,0.629v3.317l3.16,4.741l0.629,2.525l6.476,0.316l3,4.423l2.687-0.475c0,0,1.58,0.156,1.58-0.633c0-0.788-0.95-1.896,0-1.896
		c0.945,0,2.523-1.896,2.523-2.367c0-0.475-0.631-2.687-0.631-2.687l-2.21-0.314l-1.105-2.211l-2.527-0.79
		c0,0-0.949,0.787-1.419-1.105c-0.476-1.895-1.897-2.845-1.897-2.845s-0.155-2.052,0-2.525c0.159-0.473,0-3.788,0.473-4.42
		c0.478-0.633,1.265-2.37,1.265-2.37h2.684l0.315,2.841h2.687l-0.157,3.633c0,0,0,2.527,0.472,2.527
		c0.474,0,2.052-0.315,2.052-0.315l0.792-2.684v-3.162l3-1.104v-1.577l1.58,0.155l1.579,2.212h7.738
		c2.212,0,10.425,6.789,10.425,6.789l10.42,0.95l3.318,3.79l0.947,7.738l-3.319,1.896l0.163,2.211l7.577,1.579h2.213
		c0,0,0.63,2.842,1.422,2.842h4.896v4.108c0,0-2.528,1.263-3.002,1.417c-0.475,0.16-3.476,4.582-3.476,4.582
		s-0.156,1.739-1.737,0.632c-1.577-1.105-4.58-4.579-4.58-4.579l-1.104-1.264l-0.787,2.212c0,0-0.635,1.103,0.472,1.418
		c1.105,0.318,4.422,4.423,4.422,4.423l1.895,2.213l-3,2.684h-5.686l-1.105,4.894l-2.37-0.945l-1.104-2.841l-6.793-3.951
		l-0.628-3.156l-2.687-1.896l-6.949-0.475l-0.156-1.265l0.789-1.894h1.105l0.156,0.946h3.789l1.737-3.945l0.634-4.11
		c0,0,0.789-2.684,0.948-3.316c0.155-0.631,1.261-2.525,1.261-2.525l-1.261-1.896l-4.421-2.685l-4.896-1.894l-6.002-2.843
		l-4.265,1.104l-1.578,2.688c0,0,0.63,2.84,1.738,2.84h4.419l0.792,1.42l-0.792,1.106l-1.262,0.79h-2.529l-2.207,5.055l-0.949,3
		l-4.58,2.209l-1.42,2.37c0,0,2.209,0.79,2.84,0.79c0.633,0,4.741,4.424,4.741,4.424l3.628,0.154l-2.208,2.371h-2.684l-7.581,0.631
		l-3.317-1.104l-0.158-1.421c0,0,0-2.213,0.158-3.001c0.159-0.788,0.159-2.054,0.159-2.054s-0.159-2.051-1.739-1.104
		c-1.578,0.946-3.002,1.104-3.002,1.104l0.792,3.317l-2.369,0.633h-2.843l-1.736,4.418l-6.003,2.689l-1.264,3.631l-0.789,2.211
		l-2.528,5.842l-1.738-0.631l0.316,2.37c0,0,2.37,0.474,3.004,0.474c0.632,0,2.84,2.369,2.84,2.369l1.739,4.106h2.842h6.16
		l3.79,3.945l2.529,5.056c0,0,4.736-1.105,5.366-1.105c0.636,0,3.948,2.526,3.948,2.526l1.265,8.352l3.317,1.757l2.684,0.474
		l0.317-9.318l4.104-3.475l2.213-5.052l-0.949-6.159l-3.633-0.79l-1.104-6.317l2.524,0.315l0.318-8.842l2.369-1.736l3.16-0.16v3.158
		h5.053c0.63,0,3.475-0.629,3.475-0.629s0.317,3.79,0.788,3.79c0.476,0,3.95-0.317,3.95-0.317l1.734,5.211v4.107l2.369,0.947
		l2.999-0.792l0.635-1.579c0,0,1.105-3.316,1.579-3.316c0.476,0,3.789-0.633,3.789-0.633l2.371,0.791l3.001,9.32l4.579,6.949
		c0,0,3.63,5.527,6.473,5.527s5.369,3.791,5.369,3.791l-2.685,5.21l-4.422,4.896l-6.16,0.318l-9.003,1.418l-2.683,1.582l-3,0.474
		l0.156,4.895l5.057-1.421c0,0-0.476-0.791,0.47-0.791c0.951,0,4.268-0.473,4.268-0.473s-0.316,2.845-0.316,3.317
		s0.949,2.999,0.949,2.999l5.369,0.158l-1.737,3.002h6.161l-4.11,4.108l-2.684,2.841h-3.157l-4.423,0.158l-1.421-3.317l-1.897-3.475
		c0,0-1.737,1.105-1.104,1.738c0.629,0.631,0.629,5.054,0.629,5.054s-0.312,1.262,0.635,1.735c0.948,0.473,2.524,3.002,2.524,3.002
		l-1.26,1.106c0,0-0.633,0.314-1.265,0.314h-1.264l-2.213-0.314l-0.946-2.37l-2.844-1.579c0,0-1.895,1.423-1.895,1.896
		c0,0.474-0.947,3.632-0.947,3.632l-3.63,0.629l-2.844,1.424l-0.63,7.107l-5.054,4.104l1.263,8.213l-5.526,2.053l-2.212,6.948
		l-2.21,4.896v8.37l1.737,2.053l-0.476,5.686l-3.314,0.159c0,0-5.688-4.422-5.688-5.845c0-1.42-0.473-5.368-0.473-5.368
		l-1.421-1.736l-2.369-0.159l-7.899-2.682v3.472l-4.262,0.633l-10.582-2.215l-1.104-0.472l-1.421,3.634l-3.159,0.474l-2.527,8.526
		v4.265c0,1.896-0.314,8.213-0.314,8.213l0.628,3.001h1.423l0.79,3.632l2.212,2.37h2.524l0.79,1.894h2.529c0,0,1.579-0.158,2.053,0
		c0.474,0.16,3.631-1.263,3.631-1.737c0-0.474-0.157-3,0.315-3.629c0.475-0.633,1.582-0.948,2.056-1.738
		c0.474-0.791,4.106-2.37,4.578-2.845c0.476-0.473,3.317-2.527,3.317-2.527s-0.001,2.369,0.316,3.635
		c0.316,1.263-0.16,12.631-0.16,12.631l1.107,1.266c0,0,1.579,0.156,1.579,1.896c0,1.736-1.579,14.844-1.579,14.844l2.525,3.634
		L307.92,307.371z"/>
	<path fill="none" d="M608.538,220.826c-1.201-0.345,0-2.062,0-2.062v-2.748v-3.604c0,0,0-4.638-0.861-4.638
		c-0.857,0-2.402-0.858-2.572-0.858c-0.163,0-0.021-1.204-0.002-1.288c-0.022,0.082-2.231,0-2.231,0l-1.89,1.288h-3.435
		c0,0-0.344,3.604-0.344,4.466c0,0.856,0.196,1.161,0.196,1.161l2.575,1.544l-1.544,1.203l-1.4,2.103c0,0-1.2,1.545-1.89,1.545
		c-0.686,0-0.061-1.779-0.061-3.325c-1.535-0.599-1.998-0.281-2.685-0.281s-2.062-2.749-3.189-3.09
		c-1.125-0.342-0.756-4.607-0.756-4.607s-1.119-4.992-1.288-5.681c-0.175-0.685-2.667-3.28-3.525-3.452
		c-0.86-0.174-3.268-3.604-4.64-6.697c-1.372-3.092-5.494,0-5.494,0l-0.45,3.099c0,0,1.205,3.184,2.065,4.041
		c0.857,0.861,5.074,4.473,5.074,4.473l1.291,3.442l-0.998,1.212c0,0-4.921-3.73-6.122-4.418c-1.203-0.687-1.658-3.848-2.861-4.192
		c-1.202-0.342-4.386-2.751-4.386-2.751s-0.696-2.066-4.819-2.066c-4.119,0-2.018,0.254-2.018,0.254h-4.295l-6.009,2.917v3.09
		l-2.92,4.114c0,0-5.667,0.183-6.867,0.009c-1.207-0.174,0,2.231,0,2.231l-0.691,7.213c0,0-1.2,2.232-2.061,2.232
		c-0.855,0-3.774,1.375-3.774,1.375l-2.989,1.579v2.25v1.873l4.5-2.251l6.377-2.25l5.413-4.503h16.715l4.879,1.879v1.125v2.25v1.877
		v3.373v3v3.004h6l4.501,1.874v1.875l8.251,1.5v2.626l2.25-1.5l-2.25-6.375l5.252,1.498h4.875l-1.125,3.002h7.13h9.372l1.955,1.465
		v-16.379l-2.451-0.043C612.316,220.826,609.739,221.17,608.538,220.826z"/>
	<polygon fill="#759075" points="603.44,235.783 596.31,235.783 597.435,232.781 592.56,232.781 587.308,231.283 589.558,237.658 
		587.308,239.158 587.308,236.532 579.057,235.032 579.057,233.157 574.556,231.283 568.556,231.283 568.556,228.279 
		568.556,225.279 568.556,221.906 568.556,220.029 568.556,217.779 568.556,216.654 563.677,214.775 546.962,214.775 
		541.549,219.278 535.172,221.528 530.672,223.779 530.672,221.906 530.672,219.656 530.671,219.654 526.923,219.654 
		526.923,222.28 524.673,227.155 518.294,231.283 518.294,235.407 518.294,239.158 518.294,244.408 501.043,255.663 
		501.043,281.167 501.043,286.043 501.043,289.794 506.292,295.418 514.17,303.295 514.543,308.174 519.794,311.923 
		520.171,315.298 537.798,316.424 543.049,312.675 553.552,311.551 565.18,316.424 565.986,324.158 614.767,324.158 
		614.767,237.248 612.812,235.783 	"/>
	<path fill="#759075" d="M379.411,318.291l-9.227-2.859l-4.136-1.592l-1.595-6.365l-7.318-5.092h-13.361l-5.095-5.407h-6.361
		l-7.319,2.86l-1.272,3.185l-6.363,2.226h-7.32c0,0-2.227,3.183,1.908,3.821c4.137,0.635,4.774,4.772,4.774,6.999
		c0,2-0.256,7.071-0.309,8.092h69.029l0.011-0.138L379.411,318.291z"/>
	<path fill="#759075" d="M307.92,288.263c0-1.739-1.579-1.896-1.579-1.896l-1.107-1.266c0,0,0.476-11.368,0.16-12.631
		c-0.318-1.266-0.316-3.635-0.316-3.635s-2.842,2.055-3.317,2.527c-0.472,0.475-4.104,2.054-4.578,2.845
		c-0.474,0.79-1.582,1.105-2.056,1.738c-0.472,0.629-0.315,3.155-0.315,3.629c0,0.475-3.157,1.897-3.631,1.737
		c-0.475-0.158-2.053,0-2.053,0h-2.529l-0.79-1.894h-2.524l-2.212-2.37l-0.79-3.632h-1.423l-0.628-3.001
		c0,0,0.314-6.317,0.314-8.213v-4.265l2.527-8.526l3.159-0.474l1.421-3.634l1.104,0.472l10.582,2.215l4.262-0.633v-3.472
		l7.899,2.682l2.369,0.159l1.421,1.736c0,0,0.473,3.948,0.473,5.368c0,1.423,5.688,5.845,5.688,5.845l3.314-0.159l0.476-5.686
		l-1.737-2.053v-8.37l2.21-4.896l2.212-6.948l5.526-2.053l-1.263-8.213l5.054-4.104l0.63-7.107l2.844-1.424l3.63-0.629
		c0,0,0.947-3.158,0.947-3.632c0-0.473,1.895-1.896,1.895-1.896l2.844,1.579l0.946,2.37l2.213,0.314h1.264
		c0.632,0,1.265-0.314,1.265-0.314l1.26-1.106c0,0-1.576-2.529-2.524-3.002c-0.947-0.474-0.635-1.735-0.635-1.735
		s0-4.423-0.629-5.054c-0.634-0.633,1.104-1.738,1.104-1.738l1.897,3.475l1.421,3.317l4.423-0.158h3.157l2.684-2.841l4.11-4.108
		h-6.161l1.737-3.002l-5.369-0.158c0,0-0.949-2.526-0.949-2.999s0.316-3.317,0.316-3.317s-3.316,0.473-4.268,0.473
		c-0.945,0-0.47,0.791-0.47,0.791l-5.057,1.421l-0.156-4.895l3-0.474l2.683-1.582l9.003-1.418l6.16-0.318l4.422-4.896l2.685-5.21
		c0,0-2.526-3.791-5.369-3.791s-6.473-5.527-6.473-5.527l-4.579-6.949l-3.001-9.32l-2.371-0.791c0,0-3.313,0.633-3.789,0.633
		c-0.474,0-1.579,3.316-1.579,3.316l-0.635,1.579l-2.999,0.792l-2.369-0.947v-4.107l-1.734-5.211c0,0-3.475,0.317-3.95,0.317
		c-0.471,0-0.788-3.79-0.788-3.79s-2.845,0.629-3.475,0.629h-5.053v-3.158l-3.16,0.16l-2.369,1.736l-0.318,8.842l-2.524-0.315
		l1.104,6.317l3.633,0.79l0.949,6.159l-2.213,5.052l-4.104,3.475l-0.317,9.318l-2.684-0.474l-3.317-1.757l-1.265-8.352
		c0,0-3.312-2.526-3.948-2.526c-0.63,0-5.366,1.105-5.366,1.105l-2.529-5.056l-3.79-3.945h-6.16h-2.842l-1.739-4.106
		c0,0-2.208-2.369-2.84-2.369c-0.634,0-3.004-0.474-3.004-0.474l-0.316-2.37l1.738,0.631l2.528-5.842l0.789-2.211l1.264-3.631
		l6.003-2.689l1.736-4.418h2.843l2.369-0.633l-0.792-3.317c0,0,1.424-0.158,3.002-1.104c1.58-0.947,1.739,1.104,1.739,1.104
		s0,1.266-0.159,2.054c-0.158,0.788-0.158,3.001-0.158,3.001l0.158,1.421l3.317,1.104l7.581-0.631h2.684l2.208-2.371l-3.628-0.154
		c0,0-4.108-4.424-4.741-4.424c-0.631,0-2.84-0.79-2.84-0.79l1.42-2.37l4.58-2.209l0.949-3l2.207-5.055h2.529l1.262-0.79
		l0.792-1.106l-0.792-1.42h-4.419c-1.108,0-1.738-2.84-1.738-2.84l1.578-2.688l4.265-1.104l6.002,2.843l4.896,1.894l4.421,2.685
		l1.261,1.896c0,0-1.105,1.894-1.261,2.525c-0.159,0.632-0.948,3.316-0.948,3.316l-0.634,4.11l-1.737,3.945h-3.789l-0.156-0.946
		h-1.105l-0.789,1.894l0.156,1.265l6.949,0.475l2.687,1.896l0.628,3.156l6.793,3.951l1.104,2.841l2.37,0.945l1.105-4.894h5.686
		l3-2.684l-1.895-2.213c0,0-3.316-4.105-4.422-4.423c-1.106-0.315-0.472-1.418-0.472-1.418l0.787-2.212l1.104,1.264
		c0,0,3.003,3.474,4.58,4.579c1.581,1.107,1.737-0.632,1.737-0.632s3.001-4.421,3.476-4.582c0.474-0.155,3.002-1.417,3.002-1.417
		v-4.108h-4.896c-0.792,0-1.422-2.842-1.422-2.842h-2.213l-7.577-1.579l-0.163-2.211l3.319-1.896l-0.947-7.738l-3.318-3.79
		l-10.42-0.95c0,0-8.213-6.789-10.425-6.789h-7.738l-1.579-2.212l-1.58-0.155v1.577l-3,1.104v3.162l-0.792,2.684
		c0,0-1.578,0.315-2.052,0.315c-0.472,0-0.472-2.527-0.472-2.527l0.157-3.633h-2.687l-0.315-2.841h-2.684
		c0,0-0.787,1.737-1.265,2.37c-0.473,0.632-0.313,3.948-0.473,4.42c-0.155,0.474,0,2.525,0,2.525s1.422,0.95,1.897,2.845
		c0.47,1.892,1.419,1.105,1.419,1.105l2.527,0.79l1.105,2.211l2.21,0.314c0,0,0.631,2.212,0.631,2.687
		c0,0.471-1.578,2.367-2.523,2.367c-0.95,0,0,1.107,0,1.896c0,0.79-1.58,0.633-1.58,0.633l-2.687,0.475l-3-4.423l-6.476-0.316
		l-0.629-2.525l-3.16-4.741v-3.317l-2.366-0.629l-1.11-1.896l1.737-1.893l2.845-1.423l3.949-1.422V83.27c0,0-1.738-2.21-2.211-2.21
		c-0.475,0-6.157,1.423-6.157,1.423l-3.792,1.575l0.629,5.847v7.896l1.896,3.948l2.528,1.579l-0.633,2.051l-1.737,1.581
		l-3.632,0.159v-3c0-0.951-0.631-1.109-1.263-1.738c-0.633-0.632-1.422-0.947-1.422-0.947s-2.051,0.947-2.527,1.261
		c-0.476,0.319-0.788,1.739-0.788,1.739l0.788,0.791l1.737,0.314v1.736l-1.894-0.156l-5.528,0.631l-0.628,2.053
		c0,0-2.844-0.314-3.476-1.738c-0.633-1.419-0.159-1.579-0.159-1.579s-3.317-0.947-3.789-0.947c-0.476,0,0,1.736,0,1.736h-5.212
		c-1.265,0-3.631,0.318-3.631,0.318l-3.317,1.735l-0.949,3.316l-0.946-0.632l-2.371-2.21c0,0-2.055-2.367-2.682-2.367
		c-0.633,0-0.79,2.209-0.79,2.209h-7.423c-0.792,0-0.16-2.209-0.16-2.209l3.791-1.897l1.107-0.947h3.475l0.787,0.473l0.632,0.946
		c0,0,1.58,0.948,1.739,1.424c0.157,0.473,2.371,0,2.371,0l0.945-0.476l0.629-0.789l1.898-3h4.895h4.107l2.526,0.949l1.103,0.79
		l1.581-1.107l1.267-1.738v-6.001l-6.476-6.317l-1.107-6.948l-2.527-0.314v2.999l-3.158,0.476v2.523l-2.21,1.424l-2.213-4.423
		l-13.897-0.79h-3.791c-0.475,0-0.475-1.737-0.475-1.737l1.265-2.053l-0.947-0.79l-2.526-1.42h-8.056
		c-0.474,0-5.211,1.578-5.211,1.578l-0.79,1.736l-1.576,3.319h-2.528l0.946,2.053l2.211,1.581l3.632,2.05h4.268l1.892-1.104
		l-0.314-3.634l0.947-0.946h3.161v2.053l1.262,1.735l1.737,1.895l0.946,2.687l5.529-0.632l1.735,1.897l-0.634,2.523l-4.262,0.318
		l-1.104,5.213l-4.736,0.946l-0.158-2.525h-4.741l-0.629-1.737l-8.057-0.475l-1.739-1.895l-2.525,0.156l-1.578-1.577l-4.264,0.156
		l-0.16,3.16l-3.315,0.789l-0.158,1.423h-3.947l-0.473-2.371l-1.583-0.158l0.485,1.094l-4.415,3.312h-5.521l-0.366-2.209l-6.99,0.37
		L180.03,100l-2.897-2.206h-7.778v-1.843h-5.149l-0.735-1.842l-17.665-0.367l-6.625-1.841h-5.521l-2.573,1.841h-3.315l-4.781,2.945
		l-3.312,4.784l-1.84,5.886l2.941,3.314l1.107,1.841h-2.947h-3.31h-4.418h-3.31l2.207,2.944l2.944,4.783h9.201v2.574l-2.208,1.842
		l-5.152,2.578l-1.84,2.944h2.207v4.415l4.418,1.741h2.945l2.207,4.145h2.942l1.843,4.049l-2.578,4.785l-4.414,3.311l2.573,3.31
		v-2.942l4.048-0.735l3.68-0.369v-3.68l2.945-0.734h1.474l1.838,4.046h4.415v-2.944l-4.415-3.311l5.164-8.93h4.502h4.5h2.999h12.002
		l10.503,8.252h4.501h3.752v8.251l2.999-5.248l3.75,7.499l6.753,8.251l3.75,9.005l5.253,2.998v7.5h7.463h3.037l-2.25,6.752
		c-2.249,6.752,0.751,31.508,3.751,33.758c3.001,2.251,15.753,21.755,15.753,21.755l9.002,18.002l0.597,2.095h1.734l0.316-1.42
		v-0.791v-1.736c0,0,0-3.159-0.316-3.633c-0.316-0.475-0.788-3.157-0.788-3.157v-6.635c0-0.632,1.737,2.685,1.737,2.685l1.894,1.738
		l4.263,4.422l0.951,1.265c0,0,5.052,10.421,5.369,11.055c0.314,0.632,0.473,2.367,0.473,2.367l-1.579,1.107l0.157,2.843
		l4.894,4.105c0,0,1.425,1.419,1.425,2.369c0,0.947-1.105,2.999-1.105,2.999l0.946,1.106h5.214h8.054l3.947,2.683
		c0,0,2.213,2.213,2.213,2.687s3.473,2.211,3.473,2.211l6.001,0.315c0,0,0.948,2.525,0.948,3.159v4.581
		c0,1.104,3.789,3.786,4.263,3.945c0.473,0.158,3.001,1.896,3.001,1.896h3.474l0.946-0.631l-2.525-3.634
		C306.341,303.106,307.92,289.999,307.92,288.263z"/>
	<path fill="#759075" d="M330.057,271.836h-2.238c0,0-1.105-1.735-1.419-2.208c-0.316-0.475-2.37-2.211-2.37-2.687
		c0-0.473,1.105-0.947,0-1.423c-1.105-0.471-3.318-0.789-3.318-0.789s-2.209-1.42-2.209,0v3.316c0,0.476,5.684,2.055,5.684,2.055
		s1,3.79,1.211,3.79c0.213,0,2.422,2.212,2.422,2.212h0.632h3.634c0,0,0.472-1.735,0-2.529
		C331.607,272.784,330.057,271.836,330.057,271.836z"/>
	<path fill="#759075" d="M343.613,277.522v-1.42h-2.845v2.207c0,0.633-3.237,1.583-3.237,1.583l-1.341,2.054h2.685v1.896
		c0,0,3.158-0.474,3.946,0c0.792,0.472,2.055-0.633,2.055-0.633l1.895-1.263l1.106-0.948l-0.948-3.158L343.613,277.522z"/>
	<path fill="#759075" d="M224.151,72.068c1.189,0.541,4.422-0.311,4.422-0.311l2.042-2.894h2.217v1.448l0.849,2.635
		c0,0,2.211,4.598,2.723,3.746c0.51-0.849,3.401-1.022,3.401-1.022l2.723-0.848l1.536,1.977c0,0-2.042,3.129,0,3.299
		c2.04,0.168,4.766-0.343,5.785,0c1.02,0.339,1.189-0.17,1.189-0.683c0-0.51,0.852-1.362,2.212-1.362
		c1.363,0,5.958-1.189,5.958-1.189l-0.681-2.328l-2.043-2.951c0,0,0.34-2.549-0.169-2.722c-0.509-0.167-2.555,0-2.555,0
		s-2.38,1.705-2.38,2.214c0,0.507-1.362,4.252-1.362,4.252l-3.063-0.831l-0.34-2.57l-3.405-0.173l-0.171,1.362l-5.958-2.211
		l-1.189-3.234v-3.746h-7.998v3.062l-2.725,1.363h-2.892c0,0-0.342,3.345,0,3.714C222.617,72.441,222.958,71.528,224.151,72.068z"/>
	<path fill="#759075" d="M248.316,65.63h1.532l-0.512-1.699h1.363l1.871-0.685v-2.212h-4.254v2.896
		C248.316,63.931,246.786,65.63,248.316,65.63z"/>
	<path fill="#759075" d="M268.567,61.035c1.021,0.172,1.02,0.513,2.044,1.534l1.022,1.02c0,0,1.191-1.36,2.212,0.343
		c1.02,1.699-0.171,1.87,1.02,1.699c1.19-0.17,1.36-1.022,1.36-2.298v-4.337c0,0,1.534-1.192,0-1.533
		c-1.531-0.34-6.466-0.34-6.466-0.34l-3.403-0.344v-2.039h-2.211v4.767l1.189,1.529C265.334,61.035,267.55,60.865,268.567,61.035z"
		/>
	<path fill="#759075" d="M274.784,71.078c-1.619,0-2.131,0.99-2.131,0.99v2.584c0,0.678,2.384,1.018,2.384,1.018h1.873v2.045
		l1.359,0.683l2.384-0.683l-0.341-1.7c-0.341-1.706,0-2.555,0-2.555h-1.87v-2.382H274.784z"/>
	<path fill="#759075" d="M279.121,84.69l-2.212-1.87h-1.704l-1.021,2.215l-0.68,0.678c0,0-3.064-1.699-2.978,0.171
		c0.084,1.874,2.126,2.384,2.126,2.384h3.235l0.765,1.191v1.36l0.257,2.895h3.741c0.851,0,1.364-2.895,1.364-2.895
		s-0.341-1.36,0.852-1.36c1.191,0,3.401,1.701,2.04,0c-1.36-1.701-3.061-2.552-3.061-2.552h-2.383L279.121,84.69z"/>
	<path fill="#759075" d="M285.336,71.077c0.933,0.171,1.271,1.872,1.271,1.872l2.214-0.88v-1.841v-3.404h-2.214
		c0,0-1.355,0.512-1.271,1.19C285.417,68.693,284.403,70.908,285.336,71.077z"/>
	<path fill="#759075" d="M302.777,72.954l-0.002-0.005c0,0-1.87,1.363-3.061,1.501c-1.194,0.139-2.041-1.501-2.041-1.501v-1.872
		h-3.675v-2.38c0,0-1.093,1.19-1.434,2.38c-0.341,1.193-0.168,2.044,0,2.554c0.17,0.513,3.063,2.725,3.063,2.725v3.852h3.744h7.147
		h7.489h10.041l1.703-1.813l-3.234-1.188h-7.487h-5.445c-0.854,0-5.451-0.512-5.451-0.512v-1.189l-1.113-2.092
		C302.814,73.34,302.708,73.2,302.777,72.954z"/>
	<path fill="#759075" d="M290.693,55.928v2.895l3.406,2.211l2.039,2.298c0,0,2.045-2.298,2.212-3.121
		c0.172-0.826,2.215-0.056,2.215-0.056l1.36,1.9c0,0,1.703-0.508,2.214-1.021c0.511-0.513,2.381-0.511,2.846-0.823
		c0.462-0.315,3.79,0.823,3.79,0.823s0.172,1.194,0,2.298c-0.17,1.107-2.042,1.619-2.551,2.298c-0.511,0.68-3.065,0.851-3.405,1.194
		c-0.341,0.339-1.701,3.062-1.701,3.062s0,1.872-0.339,3.062c-0.001,0.002,0,0.003-0.001,0.005
		c-0.069,0.247,0.037,0.387,0.245,0.459c0.785,0.275,3.096-0.464,3.498-0.464c0.509-0.002,8.508,0,8.508,0s7.965,0.56,8.956,0.666
		c-0.634-0.308-0.955-4.917-0.955-4.917l1.703-5.364h9.869l-0.168-8.594h3.234h7.486l0.509-1.497h2.725l0.173-2.759l3.741-0.167
		l1.192,0.509l4.597-3.065l4.424-3.064c0,0,2.383-0.509,3.402-0.509c1.021,0,1.192-1.871,1.192-1.871l-2.383-2.043
		c0,0,0.171-2.042,0-2.553c-0.172-0.514-2.551-0.998-2.551-0.998s-5.618-0.363-6.298,0.147c-0.68,0.512-6.978-0.51-8.171,0
		c-1.189,0.512-7.147,0-7.147,0h-12.768l-2.889,3.064h-12.425v3.06h-4.597l-0.34,1.341h-5.784h-3.662l2.979,4.619H295.8l0.17-3.236
		c0,0-3.577-1.189-4.768-1.359c-1.19-0.171-0.85,0.679-1.19,1.192c-0.341,0.512-1.87,2.891-1.87,2.891l-2.044,2.552l-0.761,2.896
		l2.633,0.85L290.693,55.928z"/>
	<path fill="#759075" d="M323.984,73.614c0.021,0.01,0.044,0.017,0.066,0.017C324.115,73.631,324.086,73.625,323.984,73.614z"/>
	<path fill="#759075" d="M378.038,44.705c1.95,0,4.103,0.271,5.179,0.536c1.077,0.273,5.923,4.039,5.923,4.039l-2.155,1.347
		l-1.345,1.075l-0.805,1.08l2.688,1.343l0.539,1.208h20.184l16.683,20.588v5.921h-2.151l2.151,4.843h2.961v1.883l-3.498,4.307
		l-0.538,2.958h2.96l1.076,3.768l-1.076,4.575l1.076,1.346h3.23v8.88l3.768,4.307l5.381,1.345v2.153h4.575l1.078-1.615l3.497-7.266
		l3.229-2.422l2.694-5.382l1.341-5.383c0,0,9.15-1.884,11.305-1.884c2.15,0,4.035-3.498,4.035-3.498s2.694-2.153,4.575-2.153
		c1.884,0,5.65-2.42,5.65-2.42s3.499-0.271,6.192-0.271c2.69,0,6.456-3.499,6.456-3.499v-3.498l-5.65-1.075l1.885-4.576l3.766,0.54
		l2.69-0.271c0,0-0.805-2.153-1.613-2.421c-0.808-0.27-4.307-4.037-4.307-4.037s-0.266-1.886,0.27-3.229
		c0.538-1.345,0.538-2.42,1.345-2.42c0.809,0,6.192,0.266,6.192,1.075s-1.348,0.002,0,0.809c1.344,0.804,3.765-1.077,3.765-1.077
		l2.154-3.232v-5.919v-2.958l-2.154-2.154l2.154-2.422v-2.96h-3.229v-5.92l6.188-3.854c0,0,4.847-2.875,5.653-3.413
		c0.808-0.54,4.305-1.616,6.189-2.693c1.884-1.076,1.884-5.649,1.884-5.649h-8.344c0,0-6.996,0.807-7.803,1.613
		c-0.81,0.807-6.457,3.768-6.457,3.768s-5.113,1.346-5.113,0.539c0-0.808,2.422-7.266,2.422-7.266l-1.348-2.152l-5.111-1.615
		h-11.305l-1.615,4.037l-2.419-4.037h-2.962l-1.885,4.575l-6.188-1.079h-13.993h-9.416l-1.618,3.501l-5.38-0.539
		c0,0-3.767-0.538-3.767,0.807c0,1.344-0.27,2.422-0.27,2.422h-4.844l-1.347-2.422l-5.38-1.883l-10.227,0.539l-2.153,4.574
		l-1.347,1.077l-6.189-0.538h-2.153l-4.843,0.538c0,0-4.845,2.15-2.961,2.15c1.887,0,4.305,0.541,5.92,0.541
		s2.692,2.606,2.692,2.606l-1.077,1.7l-2.69,4.037h-7.537l-4.572-1.883v1.613C380.796,42.284,376.086,44.705,378.038,44.705z"/>
	<path fill="#759075" d="M513.12,112.442c0,0-0.708-0.853-1.56-0.853c-0.855,0-0.568-1.274-0.996-1.274
		c-0.426,0-2.272-1.136-2.695-0.631c-0.426,0.501-5.255,0-5.255,0h-6.107c0,0-0.566,2.191-1.28,2.191h-3.547
		c-0.425,0-0.567-2.131-0.567-2.131s-0.854-0.142-1.707,0c-0.85,0.143-1.559,1.846-2.128,2.557
		c-0.566,0.711,0.711,2.416,0.994,3.125c0.283,0.71,2.554,1.843,2.841,2.271c0.284,0.427,2.128,2.984,2.128,2.984l3.267-0.711
		l3.62-0.284c0,0,0.354-0.569,0-1.277c-0.354-0.711,0-0.568,0-0.568s4.049,0.141,4.614,0.141c0.57,0,4.403,0.997,4.831,0.997
		c0.424,0,0-1.423,0-1.423v-3.122L513.12,112.442z"/>
	<path fill="#759075" d="M573.896,54.935l1.705,2.553h4.827v3.268c0,0,1.562,1.136,2.273,2.272c0.71,1.134,0,1.561,0,1.561h2.701
		h2.269l-0.143-1.134l-0.281-1.706l2.27-1.277l-0.283-1.563l0.567-1.844l1.281-1.707V53.94l-1.849-1.562l-0.566-1.989l-2.984,0.853
		l-12.779-0.853c0,0-1.561,2.7-1.561,3.267C571.343,54.223,573.896,54.935,573.896,54.935z"/>
	<path fill="#759075" d="M601.734,51.382c0.992,0,1.132-1.56,0.992-2.483c-0.143-0.924-3.408-1.491-4.545-1.491H592.5v2.981
		c0,0,2.981,0.853,3.55,0.993C596.618,51.525,600.738,51.382,601.734,51.382z"/>
	<polygon fill="#759075" points="596.903,59.831 600.169,60.755 600.169,58.908 597.635,58.908 	"/>
	<path fill="#759075" d="M518.519,160.158v4.827l1.136,1.278l4.969,1.137c0,0,0.71-0.852,1.278-1.137
		c0.567-0.283,1.423-3.692,1.423-4.116v-3.551v-2.486h4.258v4.759l-1.846,3.833c0,0-2.273,2.556-2.412,2.981
		c-0.142,0.427,2.979,3.127,2.979,3.127h5.397c0.565,0,6.532-0.995,6.532-0.995h2.411v-4.402l-1.417-6.677h-2.558
		c0,0-4.118-6.105-4.829-7.523c-0.711-1.423-1.418-2.417-2.271-2.841c-0.85-0.427-1.562-5.538-1.704-6.247
		c-0.14-0.712-1.419-0.712-2.27-0.712c-0.854,0,0,4.26,0,4.26l-0.712,6.818c0,0-2.132,0.708-2.132-0.141
		c0-0.853-2.129-1.706-2.129-1.706l-0.567,2.555l-1.98,4.404L518.519,160.158z"/>
	<path fill="#759075" d="M592.11,97.958l-6.396,0.751l-3.47,6.375v4.352l-9.87,5.563l-1.288,5.564l-13.875,6.277l-0.753,3.375
		l3.003,4.501l-0.376,4.5l7.501,2.078l5.788-1.704v6.379l3.965,2.623l-1.127,4.5l3.003-4.5l5.625-7.297h4.876l-0.752-6.206
		l-4.124-4.126l6.751-8.874h2.941v-5.376l2.31-4.126l3.726-3.152V115c0,0,3.026-0.214,3.026,0c0,0.213-3.026,7.091-3.026,7.091
		h-4.101v8.874l2.468,5.627h3.265l4.77-0.374h3.003v1.875h-5.169c0,0-3.622-0.375-2.604,0.75c1.02,1.126,0,6.751,0,6.751v1.501
		l-6.108-1.876c0,0,0.751-5.969,0-3.922c-0.749,2.048-2.98,9.923-2.98,9.923l1.422,4.773l-5.568,1.979l-7.499-1.979h-10.879
		l-0.374-4.397l-2.253-4.5l-2.998,1.125v7.771l-0.752,5.355l-6.374,1.125c0,0-3.752-1.5-3.752,0
		c0,1.501-10.879,13.879-10.879,13.879l-9.59,2.195l6.591,7.932l0.373,5.626h-3.375l-3.589,2.252h-7.662l-5.401,0.373l-0.354,15.739
		l1.55,4.819l5.707,0.068h2.251l0.748,2.253l1.22,2.044l0.001,0.002l2.989-1.579c0,0,2.919-1.375,3.774-1.375
		c0.86,0,2.061-2.232,2.061-2.232l0.691-7.213c0,0-1.207-2.405,0-2.231c1.2,0.174,6.867-0.009,6.867-0.009l2.92-4.114v-3.09
		l6.009-2.917h4.295c0,0-2.102-0.254,2.018-0.254c4.123,0,4.819,2.066,4.819,2.066s3.184,2.409,4.386,2.751
		c1.203,0.345,1.658,3.506,2.861,4.192c1.201,0.688,6.122,4.418,6.122,4.418l0.998-1.212l-1.291-3.442c0,0-4.217-3.611-5.074-4.473
		c-0.86-0.857-2.065-4.041-2.065-4.041l0.45-3.099c0,0,4.122-3.092,5.494,0c1.372,3.093,3.779,6.523,4.64,6.697
		c0.858,0.172,3.351,2.768,3.525,3.452c0.169,0.688,1.288,5.681,1.288,5.681s-0.369,4.266,0.756,4.607
		c1.128,0.341,2.503,3.09,3.189,3.09s1.149-0.317,2.685,0.281c0,1.546-0.625,3.325,0.061,3.325c0.689,0,1.89-1.545,1.89-1.545
		l1.4-2.103l1.544-1.203l-2.575-1.544c0,0-0.196-0.305-0.196-1.161c0-0.861,0.344-4.466,0.344-4.466h3.435l1.89-1.288
		c0,0,2.209,0.082,2.231,0c-0.019,0.084-0.161,1.288,0.002,1.288c0.17,0,1.715,0.858,2.572,0.858c0.861,0,0.861,4.638,0.861,4.638
		v3.604v2.748c0,0-1.201,1.718,0,2.062c1.201,0.344,3.778,0,3.778,0l2.451,0.043V91.957h-16.101L592.11,97.958z"/>
</g>
</svg>
